<svg xmlns="http://www.w3.org/2000/svg" xmlns:xlink="http://www.w3.org/1999/xlink" viewBox="0 0 500 500"><defs><clipPath id="freepik--clip-path--inject-66"><path d="M160.58,177.68c-10.74.74-13.54,13.79-20.65,40.69s-4.08,21.7-9.88,29.23c-4.32,5.62-16.62,48.71-16.62,48.71s9.76-.54,10.5-2.36c7.12-17.63,18.65-32.81,17.93-39.36s13.51-32.66,13.51-32.66Z" style="fill:#fff;stroke:#263238;stroke-linecap:round;stroke-linejoin:round"></path></clipPath><clipPath id="freepik--clip-path-2--inject-66"><path d="M139.93,270.2s6,50.46,27.71,77.54,26.85,60.45,26.85,60.45l13-3.75s-6.08-16.86-7.18-31.65c-1.34-17.93-5.35-27.43-13-35.88-9.06-10-6-64.72-6-64.72Z" style="fill:#fff;stroke:#263238;stroke-linecap:round;stroke-linejoin:round"></path></clipPath><clipPath id="freepik--clip-path-3--inject-66"><path d="M160.28,294c-2,1.3-7.28,38.75-4.12,49.3,0,0-.8,17.14-3.69,45.84a241.41,241.41,0,0,1-3.69,24.22s10.52,6.37,11.5,3.52c7.36-21.23,19.62-38.63,16.05-62.91-1.8-12.24,10-33.05,10.88-55.76S160.28,294,160.28,294Z" style="fill:#fff;stroke:#263238;stroke-linecap:round;stroke-linejoin:round"></path></clipPath><clipPath id="freepik--clip-path-4--inject-66"><polygon points="264.29 283.84 259.54 298.08 227.89 301.04 216.45 256.88 215.02 251.36 241.34 246.65 241.48 246.88 264.29 283.84" style="fill:#00CC96;stroke:#263238;stroke-linecap:round;stroke-linejoin:round"></polygon></clipPath><clipPath id="freepik--clip-path-5--inject-66"><path d="M160.58,177.68s8.79,4.19,16.95,5.57,23.63-1.38,28.43,2.57,2.37,20.18-2.55,30.86S183,239.63,183,239.63,191,262.57,195.73,282s5.14,27.29,5.14,27.29-29.28,12.27-63.3,0c0,0,.23-39.45,6.33-64.88,2.37-9.89,6-12.84,2.77-18.76-5.34-9.89-9.1-20.8,1.19-31.08,6.44-6.45,2.39-11,7.32-14.64A10,10,0,0,1,160.58,177.68Z" style="fill:#00CC96;stroke:#263238;stroke-linecap:round;stroke-linejoin:round"></path></clipPath><clipPath id="freepik--clip-path-6--inject-66"><path d="M206,185.82c-3.68-.26-10.63,7.13-11,18.2s7.32,7.52,7.32,7.52l11.19,28.09s8,7.59,11.56,6.56S212,186.26,206,185.82Z" style="fill:#fff;stroke:#263238;stroke-linecap:round;stroke-linejoin:round"></path></clipPath><clipPath id="freepik--clip-path-7--inject-66"><polygon points="197.02 253.41 232.22 250.29 257.99 307.94 249.04 317.34 206.49 314.34 194.92 255.29 197.02 253.41" style="fill:#00CC96;stroke:#263238;stroke-linecap:round;stroke-linejoin:round"></polygon></clipPath><clipPath id="freepik--clip-path-8--inject-66"><polygon points="190.3 258.66 197.69 257.41 223.86 263.52 234.41 314.68 219.11 325.23 182.71 314.95 190.3 258.66" style="fill:#263238;stroke:#263238;stroke-linecap:round;stroke-linejoin:round"></polygon></clipPath><clipPath id="freepik--clip-path-9--inject-66"><polygon points="68.87 357.75 75.45 371.24 107.22 370 121.37 324.01 113.43 319.06 86.71 317.86 86.61 318.11 68.87 357.75" style="fill:#999;stroke:#263238;stroke-linecap:round;stroke-linejoin:round"></polygon></clipPath><clipPath id="freepik--clip-path-10--inject-66"><polygon points="131.85 323.15 124.35 322.88 99.22 332.39 95.51 384.5 112.07 392.94 146.79 377.95 131.85 323.15" style="fill:#263238;stroke:#263238;stroke-linecap:round;stroke-linejoin:round"></polygon></clipPath><clipPath id="freepik--clip-path-11--inject-66"><path d="M297.75,252.84s-35.25,66.39-36.42,80.79,24.55,67.43,24.55,67.43l-1.58,6.79s11.07,5.3,20.57-1.15,7.91-8.51,7.91-8.51-21-48.19-15.43-60.45S319.11,299,319.11,299s5.54,42.65,8.31,47.24,7.51,67.5,7.51,68.88-4.35,3.31,0,6.3,22.95,3.34,25.32,0-1.18-.71,0-14.68,2.86-60.38.84-67-.44-54.82-1.23-68.29-3.56-21.15-3.56-21.15Z" style="fill:#00CC96;stroke:#263238;stroke-linecap:round;stroke-linejoin:round"></path></clipPath><clipPath id="freepik--clip-path-12--inject-66"><polygon points="333.22 207.16 333.22 211.91 330.85 214.29 330.85 235 308.43 246.35 261.29 236.48 262.49 212.7 262.54 211.65 260.46 210.72 260.16 210.59 260.16 205.05 261.88 204.76 268.17 203.72 283.9 201.1 321.65 205.74 333.22 207.16" style="fill:#999;stroke:#263238;stroke-linecap:round;stroke-linejoin:round"></polygon></clipPath><clipPath id="freepik--clip-path-13--inject-66"><polygon points="330.85 142.4 330.85 149.56 327.68 151.77 327.97 156.75 328.73 169.97 328.74 170.16 275.99 177.68 261.33 177.68 261.29 177.45 257.99 157.7 255.47 156.54 255.75 148.02 305.53 135.41 330.85 142.4" style="fill:#00CC96;stroke:#263238;stroke-linecap:round;stroke-linejoin:round"></polygon></clipPath><clipPath id="freepik--clip-path-14--inject-66"><polygon points="336.19 175.22 336.19 180.53 333.55 180.53 333.62 187.72 333.77 202.74 316.9 204.66 267.58 202.52 268.65 182.67 265.87 181.81 265.88 181.66 266.12 176.53 317.11 168.79 336.19 175.22" style="fill:#00CC96;stroke:#263238;stroke-linecap:round;stroke-linejoin:round"></polygon></clipPath></defs><g id="freepik--background-simple--inject-66"><path d="M67.93,167.09s-27.88,72,11.3,144.5S199.11,422.39,263.7,455.14s131.66,16.8,163.53-36.84-11.84-91.93-11.9-168.42,11.45-96.74-30-161.36-143.06-78.93-219.9-31S67.93,167.09,67.93,167.09Z" style="fill:#fff;opacity:0.7000000000000001"></path><path d="M45.39,279.85a108.63,108.63,0,0,1,5.79-64.5c11.55-28.56,36.37-48.85,64.17-60.69,40.41-17.21,80.07-17.53,112.92-51.25,10.13-10.4,18.63-22.31,29-32.49,30.52-30,75.19-26.4,108.55-2.58,69.58,49.69,94.61,148.11,90.74,229.47-1.74,36.51-19.17,70.49-46.76,94.45-62.4,54.18-168.36,45.06-240,16.78C116.31,388,57.94,338.75,45.39,279.85Z" style="fill:#00CC96"></path><path d="M45.39,279.85a108.63,108.63,0,0,1,5.79-64.5c11.55-28.56,36.37-48.85,64.17-60.69,40.41-17.21,80.07-17.53,112.92-51.25,10.13-10.4,18.63-22.31,29-32.49,30.52-30,75.19-26.4,108.55-2.58,69.58,49.69,94.61,148.11,90.74,229.47-1.74,36.51-19.17,70.49-46.76,94.45-62.4,54.18-168.36,45.06-240,16.78C116.31,388,57.94,338.75,45.39,279.85Z" style="fill:#fff;opacity:0.7000000000000001"></path></g><g id="freepik--Shop--inject-66"><polyline points="447.72 277.08 183.33 277.08 183.33 293.95 447.72 293.95" style="fill:none;stroke:#263238;stroke-linecap:round;stroke-linejoin:round"></polyline><line x1="195.72" y1="295.61" x2="195.72" y2="421.61" style="fill:none;stroke:#263238;stroke-linecap:round;stroke-linejoin:round"></line><path d="M440.17,244.59c4.07-5.28-50.67-5.36-62.17-4.84s-4.9,7.8-4.9,7.8-11.85,10.66-3.5,12.67l-2.05,10" style="fill:none;stroke:#263238;stroke-linecap:round;stroke-linejoin:round"></path><path d="M385.06,246.35s48.31,2.18,55.33,4.69-.22,9.73-.22,9.73,6.25,7.09,5.55,9.43" style="fill:none;stroke:#263238;stroke-linecap:round;stroke-linejoin:round"></path><path d="M375.1,261.22s47.87,6.48,57.65,1.45" style="fill:none;stroke:#263238;stroke-linecap:round;stroke-linejoin:round"></path><path d="M356.91,244.63c4.07-5.28-50.68-5.36-62.17-4.84s-4.9,7.8-4.9,7.8-11.86,10.66-3.51,12.67l-2,10" style="fill:none;stroke:#263238;stroke-linecap:round;stroke-linejoin:round"></path><path d="M301.8,246.39s48.31,2.18,55.32,4.69-.21,9.73-.21,9.73,6.24,7.09,5.55,9.43" style="fill:none;stroke:#263238;stroke-linecap:round;stroke-linejoin:round"></path><path d="M291.84,261.26s47.87,6.47,57.64,1.45" style="fill:none;stroke:#263238;stroke-linecap:round;stroke-linejoin:round"></path><path d="M276.65,246.66c4.06-5.28-50.68-5.35-62.18-4.83s-4.89,7.79-4.89,7.79-11.86,10.67-3.51,12.68l-2,10" style="fill:none;stroke:#263238;stroke-linecap:round;stroke-linejoin:round"></path><path d="M221.54,248.43s48.3,2.17,55.32,4.68-.21,9.74-.21,9.74,6.24,7.09,5.55,9.42" style="fill:none;stroke:#263238;stroke-linecap:round;stroke-linejoin:round"></path><path d="M211.57,263.3s47.88,6.47,57.65,1.45" style="fill:none;stroke:#263238;stroke-linecap:round;stroke-linejoin:round"></path><rect x="383.54" y="170.41" width="69.48" height="21.74" style="fill:none;stroke:#263238;stroke-linecap:round;stroke-linejoin:round"></rect><line x1="414.58" y1="233.75" x2="414.58" y2="192.15" style="fill:none;stroke:#263238;stroke-linecap:round;stroke-linejoin:round"></line><line x1="422.36" y1="192.69" x2="422.36" y2="235" style="fill:none;stroke:#263238;stroke-linecap:round;stroke-linejoin:round"></line><polyline points="218.16 322.76 218.16 396.07 317.37 396.07 317.37 320.39 238.52 320.39" style="fill:none;stroke:#263238;stroke-linecap:round;stroke-linejoin:round"></polyline><polyline points="432.75 334.36 432.75 396.94 332.16 396.94 332.16 321.7 422.36 321.7" style="fill:none;stroke:#263238;stroke-linecap:round;stroke-linejoin:round"></polyline><rect x="71.82" y="145.89" width="56.79" height="83.57" style="fill:none;stroke:#263238;stroke-linecap:round;stroke-linejoin:round"></rect><line x1="95.51" y1="229.46" x2="95.51" y2="428.31" style="fill:none;stroke:#263238;stroke-linecap:round;stroke-linejoin:round"></line><line x1="104.58" y1="236.99" x2="104.58" y2="433.62" style="fill:none;stroke:#263238;stroke-linecap:round;stroke-linejoin:round"></line></g><g id="freepik--Floor--inject-66"><line x1="51.98" y1="433.62" x2="448.02" y2="433.62" style="fill:none;stroke:#263238;stroke-linecap:round;stroke-linejoin:round"></line></g><g id="freepik--character-1--inject-66"><path d="M160.58,177.68c-10.74.74-13.54,13.79-20.65,40.69s-4.08,21.7-9.88,29.23c-4.32,5.62-16.62,48.71-16.62,48.71s9.76-.54,10.5-2.36c7.12-17.63,18.65-32.81,17.93-39.36s13.51-32.66,13.51-32.66Z" style="fill:#fff"></path><g style="clip-path:url(#freepik--clip-path--inject-66)"><path d="M159.39,187.77l-4,34.16s-5.85,10.72-9.86,20.14c-3.82-10.11-3.67-23.87-2.29-36.15,4.62-17.11,7.9-26.19,15.43-28Z" style="fill:#00CC96;opacity:0.4"></path></g><path d="M160.58,177.68c-10.74.74-13.54,13.79-20.65,40.69s-4.08,21.7-9.88,29.23c-4.32,5.62-16.62,48.71-16.62,48.71s9.76-.54,10.5-2.36c7.12-17.63,18.65-32.81,17.93-39.36s13.51-32.66,13.51-32.66Z" style="fill:none;stroke:#263238;stroke-linecap:round;stroke-linejoin:round"></path><path d="M139.93,270.2s6,50.46,27.71,77.54,26.85,60.45,26.85,60.45l13-3.75s-6.08-16.86-7.18-31.65c-1.34-17.93-5.35-27.43-13-35.88-9.06-10-6-64.72-6-64.72Z" style="fill:#fff"></path><g style="clip-path:url(#freepik--clip-path-2--inject-66)"><path d="M200.53,375.62a49.14,49.14,0,0,1-19.48-6.88,122.48,122.48,0,0,0-13.41-21C146,320.66,139.93,270.2,139.93,270.2l41.34,2s-3.1,54.75,6,64.72c7.69,8.45,11.7,17.95,13,35.88C200.34,373.73,200.43,374.67,200.53,375.62Z" style="fill:#00CC96;opacity:0.4"></path></g><path d="M139.93,270.2s6,50.46,27.71,77.54,26.85,60.45,26.85,60.45l13-3.75s-6.08-16.86-7.18-31.65c-1.34-17.93-5.35-27.43-13-35.88-9.06-10-6-64.72-6-64.72Z" style="fill:none;stroke:#263238;stroke-linecap:round;stroke-linejoin:round"></path><path d="M160.28,294c-2,1.3-7.28,38.75-4.12,49.3,0,0-.8,17.14-3.69,45.84a241.41,241.41,0,0,1-3.69,24.22s10.52,6.37,11.5,3.52c7.36-21.23,19.62-38.63,16.05-62.91-1.8-12.24,10-33.05,10.88-55.76S160.28,294,160.28,294Z" style="fill:#fff"></path><g style="clip-path:url(#freepik--clip-path-3--inject-66)"><path d="M187.21,298.16A105.86,105.86,0,0,1,183,322.34,112.52,112.52,0,0,0,171.71,318a36.76,36.76,0,0,0-15.56-1.61c1.16-11.34,3.09-21.77,4.13-22.44C160.28,294,188,275.45,187.21,298.16Z" style="fill:#00CC96;opacity:0.4"></path></g><path d="M160.28,294c-2,1.3-7.28,38.75-4.12,49.3,0,0-.8,17.14-3.69,45.84a241.41,241.41,0,0,1-3.69,24.22s10.52,6.37,11.5,3.52c7.36-21.23,19.62-38.63,16.05-62.91-1.8-12.24,10-33.05,10.88-55.76S160.28,294,160.28,294Z" style="fill:none;stroke:#263238;stroke-linecap:round;stroke-linejoin:round"></path><path d="M211.62,144.19c-3.43,6.93-2.87,23.74-7.41,26.51v-2.17a15.37,15.37,0,0,1-7.68,4.35c-4.83,1.06-19.62.59-23.46-7.72a12.84,12.84,0,0,0,1.27,4.36s-4.66-1.25-6-5.77l-.12,3s-2,.37-4.25-7.53,3.9-12.9,4.37-16.65,6-11.43,17.08-13.21S211.62,144.19,211.62,144.19Z" style="fill:#263238"></path><polygon points="264.29 283.84 259.54 298.08 227.89 301.04 216.45 256.88 215.02 251.36 241.34 246.65 241.48 246.88 264.29 283.84" style="fill:#00CC96"></polygon><g style="clip-path:url(#freepik--clip-path-4--inject-66)"><polygon points="241.48 246.88 237.99 251.16 237.2 257.4 216.45 256.88 215.02 251.36 241.34 246.65 241.48 246.88" style="opacity:0.4"></polygon></g><polygon points="264.29 283.84 259.54 298.08 227.89 301.04 216.45 256.88 215.02 251.36 241.34 246.65 241.48 246.88 264.29 283.84" style="fill:none;stroke:#263238;stroke-linecap:round;stroke-linejoin:round"></polygon><polyline points="240.24 248.41 237.99 251.17 237.2 257.41 218.12 256.93" style="fill:none;stroke:#263238;stroke-linecap:round;stroke-linejoin:round"></polyline><polyline points="238.52 260.77 257.11 295.61 256.19 284.8 261.33 284" style="fill:none;stroke:#263238;stroke-linecap:round;stroke-linejoin:round"></polyline><path d="M248.85,271.94,242,259.48" style="fill:none;stroke:#263238;stroke-linecap:round;stroke-linejoin:round"></path><path d="M254.08,281.37c-1.25-2.27-2.51-4.53-3.76-6.79" style="fill:none;stroke:#263238;stroke-linecap:round;stroke-linejoin:round"></path><path d="M230.54,249.82s-13.38-15.62-21.27-13,8.31,15.92,8.31,15.92" style="fill:none;stroke:#263238;stroke-linecap:round;stroke-linejoin:round"></path><path d="M227.18,258.73S214.67,236,208.56,236.48s4.84,21.72,4.84,21.72" style="fill:none;stroke:#263238;stroke-linecap:round;stroke-linejoin:round"></path><path d="M160.58,177.68s8.79,4.19,16.95,5.57,23.63-1.38,28.43,2.57,2.37,20.18-2.55,30.86S183,239.63,183,239.63,191,262.57,195.73,282s5.14,27.29,5.14,27.29-29.28,12.27-63.3,0c0,0,.23-39.45,6.33-64.88,2.37-9.89,6-12.84,2.77-18.76-5.34-9.89-9.1-20.8,1.19-31.08,6.44-6.45,2.39-11,7.32-14.64A10,10,0,0,1,160.58,177.68Z" style="fill:#00CC96"></path><g style="clip-path:url(#freepik--clip-path-5--inject-66)"><path d="M183,239.63S191,262.57,195.73,282s5.14,27.29,5.14,27.29a84.83,84.83,0,0,1-22.84,5c.73-4.8,2.46-17.32,1.36-21-1.37-4.52,3.21-22.11,3.06-24.16s-8.19,3.41-8.19,3.41-3-.57,1.15-4.68,2.32-29.15,2.32-29.15a10.88,10.88,0,0,1-7.69-1.09c-3.86-2.18-7-11.13-7-11.13s9,4.6,15.85,2.93,14.47-17,14.47-17h2.34c-1.92-2.6-.79-8.42-.79-8.42l13.47-6.12a59.93,59.93,0,0,1-5,18.78C198.49,227.36,183,239.63,183,239.63Z" style="opacity:0.15"></path></g><path d="M160.58,177.68s8.79,4.19,16.95,5.57,23.63-1.38,28.43,2.57,2.37,20.18-2.55,30.86S183,239.63,183,239.63,191,262.57,195.73,282s5.14,27.29,5.14,27.29-29.28,12.27-63.3,0c0,0,.23-39.45,6.33-64.88,2.37-9.89,6-12.84,2.77-18.76-5.34-9.89-9.1-20.8,1.19-31.08,6.44-6.45,2.39-11,7.32-14.64A10,10,0,0,1,160.58,177.68Z" style="fill:none;stroke:#263238;stroke-linecap:round;stroke-linejoin:round"></path><path d="M202.25,184.44s-26.26,11-36.39,8.7c-7.47-1.7-5.28-15.46-5.28-15.46s12.16-1,15.2-3.39c6.84-5.47,0-20.18,0-20.18L196.31,159a93.93,93.93,0,0,0-3.47,9.76,32.62,32.62,0,0,0-1.23,5.92,7.55,7.55,0,0,0,.22,3C193,181,202.25,184.44,202.25,184.44Z" style="fill:#fff;stroke:#263238;stroke-linecap:round;stroke-linejoin:round"></path><path d="M206,185.82c-3.68-.26-10.63,7.13-11,18.2s7.32,7.52,7.32,7.52l11.19,28.09s8,7.59,11.56,6.56S212,186.26,206,185.82Z" style="fill:#fff"></path><g style="clip-path:url(#freepik--clip-path-6--inject-66)"><path d="M202.25,211.54a5.9,5.9,0,0,1-4.57.1c-1.48-3.71-.18-7.76,1-7C200.45,205.88,202.25,211.54,202.25,211.54Z" style="fill:#00CC96;opacity:0.4"></path></g><path d="M206,185.82c-3.68-.26-10.63,7.13-11,18.2s7.32,7.52,7.32,7.52l11.19,28.09s8,7.59,11.56,6.56S212,186.26,206,185.82Z" style="fill:none;stroke:#263238;stroke-linecap:round;stroke-linejoin:round"></path><path d="M221.24,252.09s-8.4-13.64-15.47-14.43-2,16.22-2,16.22" style="fill:none;stroke:#263238;stroke-linecap:round;stroke-linejoin:round"></path><polygon points="197.02 253.41 232.22 250.29 257.99 307.94 249.04 317.34 206.49 314.34 194.92 255.29 197.02 253.41" style="fill:#00CC96"></polygon><g style="clip-path:url(#freepik--clip-path-7--inject-66)"><polygon points="232.28 250.42 227.5 254.36 226.58 258.18 194.92 255.29 197.02 253.4 232.22 250.29 232.28 250.42" style="opacity:0.2"></polygon><polygon points="257.99 307.94 249.04 317.34 206.49 314.34 194.92 255.29 194.92 255.29 226.83 258.2 227.5 254.36 232.28 250.42 257.99 307.94" style="fill:#fff;opacity:0.6000000000000001"></polygon></g><polygon points="197.02 253.41 232.22 250.29 257.99 307.94 249.04 317.34 206.49 314.34 194.92 255.29 197.02 253.41" style="fill:none;stroke:#263238;stroke-linecap:round;stroke-linejoin:round"></polygon><polyline points="196.25 255.68 226.83 258.2 227.5 254.36 230.54 252.09" style="fill:none;stroke:#263238;stroke-linecap:round;stroke-linejoin:round"></polyline><polyline points="228.16 261.22 247.94 313.57 249.26 303.55 255.07 306.48" style="fill:none;stroke:#263238;stroke-linecap:round;stroke-linejoin:round"></polyline><path d="M246.32,297.17l1.36,3.21" style="fill:none;stroke:#263238;stroke-linecap:round;stroke-linejoin:round"></path><path d="M235.13,270.78,245,294" style="fill:none;stroke:#263238;stroke-linecap:round;stroke-linejoin:round"></path><path d="M229.62,257.79q2.13,5.06,4.28,10.11" style="fill:none;stroke:#263238;stroke-linecap:round;stroke-linejoin:round"></path><path d="M214.12,259.48s-6.43-20.14-13.35-20.73-1,19.28-1,19.28" style="fill:none;stroke:#263238;stroke-linecap:round;stroke-linejoin:round"></path><polygon points="190.3 258.66 197.69 257.41 223.86 263.52 234.41 314.68 219.11 325.23 182.71 314.95 190.3 258.66" style="fill:#263238"></polygon><g style="clip-path:url(#freepik--clip-path-8--inject-66)"><polygon points="190.3 258.66 214.53 269.02 216.47 265.94 223.86 263.52 197.69 257.41 190.3 258.66" style="opacity:0.30000000000000004"></polygon></g><polygon points="190.3 258.66 197.69 257.41 223.86 263.52 234.41 314.68 219.11 325.23 182.71 314.95 190.3 258.66" style="fill:none;stroke:#263238;stroke-linecap:round;stroke-linejoin:round"></polygon><g style="opacity:0.5"><polyline points="190.96 260.22 214.86 270.2 217.3 266.62 223.33 264.64" style="fill:none;stroke:#fff;stroke-linecap:round;stroke-linejoin:round"></polyline><polyline points="215.28 272.15 218.16 322.76 224.98 312.11 233.22 313.82" style="fill:none;stroke:#fff;stroke-linecap:round;stroke-linejoin:round"></polyline><line x1="219.9" y1="278.29" x2="223.86" y2="304.13" style="fill:none;stroke:#fff;stroke-linecap:round;stroke-linejoin:round"></line><line x1="218.18" y1="267.87" x2="219.24" y2="274.59" style="fill:none;stroke:#fff;stroke-linecap:round;stroke-linejoin:round"></line></g><path d="M194.49,265.21s-4.46-23.69,4.44-26,8.21,31,8.21,31" style="fill:none;stroke:#263238;stroke-linecap:round;stroke-linejoin:round"></path><path d="M215.29,262.84s-3-24.09-13.55-23.6" style="fill:none;stroke:#263238;stroke-linecap:round;stroke-linejoin:round"></path><path d="M95.12,319S109,302.33,117.2,303.84s-8,15.62-8,15.62" style="fill:none;stroke:#263238;stroke-linecap:round;stroke-linejoin:round"></path><polygon points="68.87 357.75 75.45 371.24 107.22 370 121.37 324.01 113.43 319.06 86.71 317.86 86.61 318.11 68.87 357.75" style="fill:#999"></polygon><g style="clip-path:url(#freepik--clip-path-9--inject-66)"><polygon points="86.61 318.11 90.63 321.89 92.24 327.97 119.14 323.72 113.43 319.06 86.71 317.86 86.61 318.11" style="opacity:0.4"></polygon></g><polygon points="68.87 357.75 75.45 371.24 107.22 370 121.37 324.01 113.43 319.06 86.71 317.86 86.61 318.11 68.87 357.75" style="fill:none;stroke:#263238;stroke-linecap:round;stroke-linejoin:round"></polygon><polyline points="88.04 319.46 90.63 321.89 92.23 327.98 117.1 324.04" style="fill:none;stroke:#263238;stroke-linecap:round;stroke-linejoin:round"></polyline><polyline points="91.37 331.49 77.53 368.47 77.02 357.63 71.82 357.52" style="fill:none;stroke:#263238;stroke-linecap:round;stroke-linejoin:round"></polyline><path d="M82.6,343.91l5.2-13.26" style="fill:none;stroke:#263238;stroke-linecap:round;stroke-linejoin:round"></path><path d="M78.66,354c1-2.41,1.89-4.81,2.83-7.22" style="fill:none;stroke:#263238;stroke-linecap:round;stroke-linejoin:round"></path><path d="M102.35,328s9.4-24.18,15.52-24.5-1.93,22.17-1.93,22.17" style="fill:none;stroke:#263238;stroke-linecap:round;stroke-linejoin:round"></path><polygon points="131.85 323.15 124.35 322.88 99.22 332.39 95.51 384.5 112.07 392.94 146.79 377.95 131.85 323.15" style="fill:#263238"></polygon><g style="clip-path:url(#freepik--clip-path-10--inject-66)"><polygon points="131.85 323.15 109.2 336.62 106.87 333.82 99.22 332.39 124.35 322.88 131.85 323.15" style="opacity:0.30000000000000004"></polygon></g><polygon points="131.85 323.15 124.35 322.88 99.22 332.39 95.51 384.5 112.07 392.94 146.79 377.95 131.85 323.15" style="fill:none;stroke:#263238;stroke-linecap:round;stroke-linejoin:round"></polygon><g style="opacity:0.5"><polyline points="131.4 324.79 109.02 337.83 106.13 334.6 99.89 333.44" style="fill:none;stroke:#fff;stroke-linecap:round;stroke-linejoin:round"></polyline><polyline points="108.86 339.82 112.69 390.37 104.52 380.71 96.58 383.5" style="fill:none;stroke:#fff;stroke-linecap:round;stroke-linejoin:round"></polyline><line x1="105.09" y1="346.51" x2="104.58" y2="372.65" style="fill:none;stroke:#fff;stroke-linecap:round;stroke-linejoin:round"></line><line x1="105.42" y1="335.96" x2="105.26" y2="342.76" style="fill:none;stroke:#fff;stroke-linecap:round;stroke-linejoin:round"></line></g><path d="M128.55,330.2s1.3-24.07-7.82-25.16-4.06,31.77-4.06,31.77" style="fill:none;stroke:#263238;stroke-linecap:round;stroke-linejoin:round"></path><path d="M107.63,330.59s-.23-24.27,10.31-25.18" style="fill:none;stroke:#263238;stroke-linecap:round;stroke-linejoin:round"></path><path d="M216.69,237.75c-10-2.68-21.77,6.21-38.36,5.28-2.53-.14-9.36-1.32-10.09-1.05s-4.9,6-4.16,8.17c.59,1.75,8.65,5.77,10.26,5.26l1.61-.51a7.59,7.59,0,0,0,7.12-3.16s31.38,3.67,41.93-5.55" style="fill:#fff;stroke:#263238;stroke-linecap:round;stroke-linejoin:round"></path><path d="M176,254.9s1.36-3,.47-3" style="fill:none;stroke:#263238;stroke-linecap:round;stroke-linejoin:round"></path><path d="M177.73,250.81a5.81,5.81,0,0,1-3.47,1.88" style="fill:none;stroke:#263238;stroke-linecap:round;stroke-linejoin:round"></path><path d="M170.93,254.59c-.48-.2.86-5,1.65-5.85" style="fill:none;stroke:#263238;stroke-linecap:round;stroke-linejoin:round"></path><path d="M168.18,253.29c-.54-1,1.63-5.74,1.63-5.74" style="fill:none;stroke:#263238;stroke-linecap:round;stroke-linejoin:round"></path><path d="M165.84,251.88c-.67-1.55,1.8-5.53,1.8-5.53" style="fill:none;stroke:#263238;stroke-linecap:round;stroke-linejoin:round"></path><path d="M198.93,239.24c8.9-2.29,8.21,31,8.21,31" style="fill:none;stroke:#263238;stroke-linecap:round;stroke-linejoin:round"></path><path d="M215.29,262.84s-3-24.09-13.55-23.6" style="fill:none;stroke:#263238;stroke-linecap:round;stroke-linejoin:round"></path><path d="M221.24,252.09s-8.4-13.64-15.47-14.43" style="fill:none;stroke:#263238;stroke-linecap:round;stroke-linejoin:round"></path><path d="M214.12,259.48s-6.43-20.14-13.35-20.73" style="fill:none;stroke:#263238;stroke-linecap:round;stroke-linejoin:round"></path><path d="M230.54,249.82s-13.38-15.62-21.27-13" style="fill:none;stroke:#263238;stroke-linecap:round;stroke-linejoin:round"></path><path d="M227.18,258.73S214.67,236,208.56,236.48" style="fill:none;stroke:#263238;stroke-linecap:round;stroke-linejoin:round"></path><path d="M160.29,181.19s5.76,3.32,7.15,4.63a2.78,2.78,0,0,1,.8,2.88" style="fill:none;stroke:#263238;stroke-linecap:round;stroke-linejoin:round"></path><path d="M170.41,188.7a6.25,6.25,0,0,1,4.57-2c2.94,0,14.13.78,19.51.69" style="fill:none;stroke:#263238;stroke-linecap:round;stroke-linejoin:round"></path><path d="M152.6,409a29.8,29.8,0,0,1-3.82,5.14l1-5.87a4,4,0,0,0-3.4,1.22s.61,4.27-1,5.84c-5.35,5.26-18.15,12.71-20.15,13.1-9.42,1.89-9.42,2.75-9.42,2.75s4.22,7.85,17.84,9.05c0,0,8.54-3.71,13.25-3.71s3.46,9.1,3.46,9.1H156s5-6.59,5.65-13.19-.7-10.92,2.39-19.15c0,0-3.65-2.43-6.79-4.2S152.6,409,152.6,409Z" style="fill:#263238"></path><path d="M194.5,401.28c.43,3.25,0,4,0,4L192,397.35s-2.63,2.34-1.84,4.85c0,0,2.69,3.88,2.36,6.1-1.09,7.43-6.79,21.1-8.14,22.62-6.37,7.19-5.85,7.87-5.85,7.87s8.1,3.71,19.68-3.56c0,0,4.57-8.12,8.32-11s8.25,5.17,8.25,5.17l4.51-3.41s0-8.29-3.46-13.93-6.68-9.65-9.19-18.08h-2.44s1.73,2.77-3.49,5.54A15.09,15.09,0,0,1,194.5,401.28Z" style="fill:#263238"></path><path d="M114.23,293.33c-3,6.78-6.24,12.43-5.45,15.83s6.15,5.26,9.16,4.41,8.15-1.64,7.56-4.71a33.42,33.42,0,0,0-1.38-5.12,25.48,25.48,0,0,0-.19-9.79" style="fill:#fff;stroke:#263238;stroke-linecap:round;stroke-linejoin:round"></path><path d="M120,303.74s3-.87,4.11,0" style="fill:none;stroke:#263238;stroke-linecap:round;stroke-linejoin:round"></path><path d="M113.24,306.93s-3.36,4.73-3.66,8.34" style="fill:none;stroke:#263238;stroke-linecap:round;stroke-linejoin:round"></path><path d="M106.61,309s3.93-4.15,6.82-3.95" style="fill:none;stroke:#263238;stroke-linecap:round;stroke-linejoin:round"></path><path d="M107.63,316.19s3.39-7.4,5.64-9.88" style="fill:none;stroke:#263238;stroke-linecap:round;stroke-linejoin:round"></path><path d="M113.43,300.38s-.41,5.83,0,7.31,6.73,4.54,6.73,4.54.4-2.25-3.46-5.92c0,0,4-1.72,4.45-5.27" style="fill:#fff;stroke:#263238;stroke-linecap:round;stroke-linejoin:round"></path><path d="M115.27,314.7s-.15-3,0-5.24" style="fill:#fff;stroke:#263238;stroke-linecap:round;stroke-linejoin:round"></path><path d="M118.77,305s2.38,0,2.38,4.45" style="fill:none;stroke:#263238;stroke-linecap:round;stroke-linejoin:round"></path><path d="M121.37,303.45a3.58,3.58,0,0,1,1.76,1.56,17,17,0,0,1,.4,3.95" style="fill:none;stroke:#263238;stroke-linecap:round;stroke-linejoin:round"></path><path d="M192.84,168.75a32.62,32.62,0,0,0-1.23,5.92,11.53,11.53,0,0,1-6.8-7Z" style="fill:#263238"></path><path d="M178.33,162.31c-8.86-12-1.52-34.1,7.91-37.07,17.58-5.54,22.8,6.91,23.08,13.61.23,5.67-3.83,12.47-3.58,15.89.63,8.55-8.37,17.07-13.3,17-3.09,0-6.08-1.71-9.22-4.43" style="fill:#fff;stroke:#263238;stroke-linecap:round;stroke-linejoin:round"></path><path d="M183.83,144.25a7.14,7.14,0,0,1,6.76-3.36" style="fill:none;stroke:#263238;stroke-linecap:round;stroke-linejoin:round"></path><path d="M201.67,142.57s4-.44,5.09,3.26" style="fill:none;stroke:#263238;stroke-linecap:round;stroke-linejoin:round"></path><path d="M190.58,148c-.14,1.08-.73,1.9-1.33,1.82s-1-1-.83-2.1.74-1.9,1.33-1.82S190.72,146.87,190.58,148Z" style="fill:#263238"></path><path d="M203.14,149.27c-.13,1.08-.73,1.9-1.33,1.82s-1-1-.83-2.1.74-1.9,1.33-1.82S203.28,148.18,203.14,149.27Z" style="fill:#263238"></path><path d="M196.53,151.77a5.84,5.84,0,0,0,1.84,2.64c1.19.72-1.84,3.29-1.84,3.29" style="fill:none;stroke:#263238;stroke-linecap:round;stroke-linejoin:round"></path><path d="M197.59,161s-5.15.39-8.58-1.78" style="fill:none;stroke:#263238;stroke-linecap:round;stroke-linejoin:round"></path><path d="M189.5,159.51s1.36,3.73,4.19,4.19,3.1-2.67,3.1-2.67" style="fill:none;stroke:#263238;stroke-linecap:round;stroke-linejoin:round"></path><path d="M176.4,145.83a5.5,5.5,0,0,1,3.38,3.3s12.62-8.57,13.37-18.2c0,0,15,6.65,14.65,19.08,0,0,6.13-.75,5.6-10.51s-14.5-24.39-27-16.48c0,0-8.23-3.43-14.73,8.31s-3,25.84,4.86,27.89C176.5,159.22,173.82,151.77,176.4,145.83Z" style="fill:#263238"></path><path d="M178.33,147.84s-3.43-4.38-5.14-2.93-2.38,7.71,0,9.83,4.08,4,4.48,2" style="fill:#fff;stroke:#263238;stroke-linecap:round;stroke-linejoin:round"></path><path d="M191,209a9.52,9.52,0,0,0,8,4.6" style="fill:none;stroke:#263238;stroke-linecap:round;stroke-linejoin:round"></path><path d="M156.76,197.9s17.53.85,26.57-4.44" style="fill:none;stroke:#263238;stroke-linecap:round;stroke-linejoin:round"></path><path d="M155.37,221.93s8.24,3.93,13,9.2" style="fill:none;stroke:#263238;stroke-linecap:round;stroke-linejoin:round"></path><path d="M143.31,267.9c2.11,10.7,14,28.23,13.45,38.31" style="fill:none;stroke:#263238;stroke-linecap:round;stroke-linejoin:round"></path><path d="M182.45,261.26s-7.5,13.25-14.09,15.82" style="fill:none;stroke:#263238;stroke-linecap:round;stroke-linejoin:round"></path></g></svg>